G04 #@! TF.GenerationSoftware,KiCad,Pcbnew,(5.1.10)-1*
G04 #@! TF.CreationDate,2021-05-19T19:05:48-07:00*
G04 #@! TF.ProjectId,numpad,6e756d70-6164-42e6-9b69-6361645f7063,rev?*
G04 #@! TF.SameCoordinates,Original*
G04 #@! TF.FileFunction,Soldermask,Bot*
G04 #@! TF.FilePolarity,Negative*
%FSLAX46Y46*%
G04 Gerber Fmt 4.6, Leading zero omitted, Abs format (unit mm)*
G04 Created by KiCad (PCBNEW (5.1.10)-1) date 2021-05-19 19:05:48*
%MOMM*%
%LPD*%
G01*
G04 APERTURE LIST*
%ADD10O,2.400000X2.950000*%
%ADD11C,2.400000*%
%ADD12O,2.200000X1.600000*%
%ADD13O,2.200000X1.500000*%
%ADD14O,2.950000X2.400000*%
%ADD15O,1.600000X2.200000*%
%ADD16O,1.500000X2.200000*%
G04 APERTURE END LIST*
G36*
G01*
X130245726Y-127615793D02*
X131583988Y-126129503D01*
G75*
G02*
X133278719Y-126040686I891774J-802957D01*
G01*
X133278719Y-126040686D01*
G75*
G02*
X133367536Y-127735417I-802957J-891774D01*
G01*
X132029274Y-129221707D01*
G75*
G02*
X130334543Y-129310524I-891774J802957D01*
G01*
X130334543Y-129310524D01*
G75*
G02*
X130245726Y-127615793I802957J891774D01*
G01*
G37*
D10*
X137437500Y-126168750D03*
D11*
X132437500Y-126968750D03*
G36*
G01*
X136637626Y-125447547D02*
X136637626Y-125447547D01*
G75*
G02*
X137381052Y-124691031I749971J6545D01*
G01*
X140280942Y-124665725D01*
G75*
G02*
X141037458Y-125409151I6545J-749971D01*
G01*
X141037458Y-125409151D01*
G75*
G02*
X140294032Y-126165667I-749971J-6545D01*
G01*
X137394142Y-126190973D01*
G75*
G02*
X136637626Y-125447547I-6545J749971D01*
G01*
G37*
D12*
X129837500Y-134868750D03*
D13*
X134937500Y-136868750D03*
X134937500Y-117818750D03*
D12*
X129837500Y-115818750D03*
G36*
G01*
X136637626Y-106397547D02*
X136637626Y-106397547D01*
G75*
G02*
X137381052Y-105641031I749971J6545D01*
G01*
X140280942Y-105615725D01*
G75*
G02*
X141037458Y-106359151I6545J-749971D01*
G01*
X141037458Y-106359151D01*
G75*
G02*
X140294032Y-107115667I-749971J-6545D01*
G01*
X137394142Y-107140973D01*
G75*
G02*
X136637626Y-106397547I-6545J749971D01*
G01*
G37*
D11*
X132437500Y-107918750D03*
D10*
X137437500Y-107118750D03*
G36*
G01*
X130245726Y-108565793D02*
X131583988Y-107079503D01*
G75*
G02*
X133278719Y-106990686I891774J-802957D01*
G01*
X133278719Y-106990686D01*
G75*
G02*
X133367536Y-108685417I-802957J-891774D01*
G01*
X132029274Y-110171707D01*
G75*
G02*
X130334543Y-110260524I-891774J802957D01*
G01*
X130334543Y-110260524D01*
G75*
G02*
X130245726Y-108565793I802957J891774D01*
G01*
G37*
G36*
G01*
X111195726Y-108565793D02*
X112533988Y-107079503D01*
G75*
G02*
X114228719Y-106990686I891774J-802957D01*
G01*
X114228719Y-106990686D01*
G75*
G02*
X114317536Y-108685417I-802957J-891774D01*
G01*
X112979274Y-110171707D01*
G75*
G02*
X111284543Y-110260524I-891774J802957D01*
G01*
X111284543Y-110260524D01*
G75*
G02*
X111195726Y-108565793I802957J891774D01*
G01*
G37*
X118387500Y-107118750D03*
D11*
X113387500Y-107918750D03*
G36*
G01*
X117587626Y-106397547D02*
X117587626Y-106397547D01*
G75*
G02*
X118331052Y-105641031I749971J6545D01*
G01*
X121230942Y-105615725D01*
G75*
G02*
X121987458Y-106359151I6545J-749971D01*
G01*
X121987458Y-106359151D01*
G75*
G02*
X121244032Y-107115667I-749971J-6545D01*
G01*
X118344142Y-107140973D01*
G75*
G02*
X117587626Y-106397547I-6545J749971D01*
G01*
G37*
D12*
X110787500Y-115818750D03*
D13*
X115887500Y-117818750D03*
X96837500Y-117818750D03*
D12*
X91737500Y-115818750D03*
G36*
G01*
X98537626Y-106397547D02*
X98537626Y-106397547D01*
G75*
G02*
X99281052Y-105641031I749971J6545D01*
G01*
X102180942Y-105615725D01*
G75*
G02*
X102937458Y-106359151I6545J-749971D01*
G01*
X102937458Y-106359151D01*
G75*
G02*
X102194032Y-107115667I-749971J-6545D01*
G01*
X99294142Y-107140973D01*
G75*
G02*
X98537626Y-106397547I-6545J749971D01*
G01*
G37*
D11*
X94337500Y-107918750D03*
D10*
X99337500Y-107118750D03*
G36*
G01*
X92145726Y-108565793D02*
X93483988Y-107079503D01*
G75*
G02*
X95178719Y-106990686I891774J-802957D01*
G01*
X95178719Y-106990686D01*
G75*
G02*
X95267536Y-108685417I-802957J-891774D01*
G01*
X93929274Y-110171707D01*
G75*
G02*
X92234543Y-110260524I-891774J802957D01*
G01*
X92234543Y-110260524D01*
G75*
G02*
X92145726Y-108565793I802957J891774D01*
G01*
G37*
G36*
G01*
X130245726Y-89515793D02*
X131583988Y-88029503D01*
G75*
G02*
X133278719Y-87940686I891774J-802957D01*
G01*
X133278719Y-87940686D01*
G75*
G02*
X133367536Y-89635417I-802957J-891774D01*
G01*
X132029274Y-91121707D01*
G75*
G02*
X130334543Y-91210524I-891774J802957D01*
G01*
X130334543Y-91210524D01*
G75*
G02*
X130245726Y-89515793I802957J891774D01*
G01*
G37*
X137437500Y-88068750D03*
D11*
X132437500Y-88868750D03*
G36*
G01*
X136637626Y-87347547D02*
X136637626Y-87347547D01*
G75*
G02*
X137381052Y-86591031I749971J6545D01*
G01*
X140280942Y-86565725D01*
G75*
G02*
X141037458Y-87309151I6545J-749971D01*
G01*
X141037458Y-87309151D01*
G75*
G02*
X140294032Y-88065667I-749971J-6545D01*
G01*
X137394142Y-88090973D01*
G75*
G02*
X136637626Y-87347547I-6545J749971D01*
G01*
G37*
D12*
X129837500Y-96768750D03*
D13*
X134937500Y-98768750D03*
X115887500Y-98768750D03*
D12*
X110787500Y-96768750D03*
G36*
G01*
X117587626Y-87347547D02*
X117587626Y-87347547D01*
G75*
G02*
X118331052Y-86591031I749971J6545D01*
G01*
X121230942Y-86565725D01*
G75*
G02*
X121987458Y-87309151I6545J-749971D01*
G01*
X121987458Y-87309151D01*
G75*
G02*
X121244032Y-88065667I-749971J-6545D01*
G01*
X118344142Y-88090973D01*
G75*
G02*
X117587626Y-87347547I-6545J749971D01*
G01*
G37*
D11*
X113387500Y-88868750D03*
D10*
X118387500Y-88068750D03*
G36*
G01*
X111195726Y-89515793D02*
X112533988Y-88029503D01*
G75*
G02*
X114228719Y-87940686I891774J-802957D01*
G01*
X114228719Y-87940686D01*
G75*
G02*
X114317536Y-89635417I-802957J-891774D01*
G01*
X112979274Y-91121707D01*
G75*
G02*
X111284543Y-91210524I-891774J802957D01*
G01*
X111284543Y-91210524D01*
G75*
G02*
X111195726Y-89515793I802957J891774D01*
G01*
G37*
G36*
G01*
X92152477Y-89515793D02*
X93490739Y-88029503D01*
G75*
G02*
X95185470Y-87940686I891774J-802957D01*
G01*
X95185470Y-87940686D01*
G75*
G02*
X95274287Y-89635417I-802957J-891774D01*
G01*
X93936025Y-91121707D01*
G75*
G02*
X92241294Y-91210524I-891774J802957D01*
G01*
X92241294Y-91210524D01*
G75*
G02*
X92152477Y-89515793I802957J891774D01*
G01*
G37*
X99344251Y-88068750D03*
D11*
X94344251Y-88868750D03*
G36*
G01*
X98544377Y-87347547D02*
X98544377Y-87347547D01*
G75*
G02*
X99287803Y-86591031I749971J6545D01*
G01*
X102187693Y-86565725D01*
G75*
G02*
X102944209Y-87309151I6545J-749971D01*
G01*
X102944209Y-87309151D01*
G75*
G02*
X102200783Y-88065667I-749971J-6545D01*
G01*
X99300893Y-88090973D01*
G75*
G02*
X98544377Y-87347547I-6545J749971D01*
G01*
G37*
D12*
X91744251Y-96768750D03*
D13*
X96844251Y-98768750D03*
G36*
G01*
X130245726Y-70465793D02*
X131583988Y-68979503D01*
G75*
G02*
X133278719Y-68890686I891774J-802957D01*
G01*
X133278719Y-68890686D01*
G75*
G02*
X133367536Y-70585417I-802957J-891774D01*
G01*
X132029274Y-72071707D01*
G75*
G02*
X130334543Y-72160524I-891774J802957D01*
G01*
X130334543Y-72160524D01*
G75*
G02*
X130245726Y-70465793I802957J891774D01*
G01*
G37*
D10*
X137437500Y-69018750D03*
D11*
X132437500Y-69818750D03*
G36*
G01*
X136637626Y-68297547D02*
X136637626Y-68297547D01*
G75*
G02*
X137381052Y-67541031I749971J6545D01*
G01*
X140280942Y-67515725D01*
G75*
G02*
X141037458Y-68259151I6545J-749971D01*
G01*
X141037458Y-68259151D01*
G75*
G02*
X140294032Y-69015667I-749971J-6545D01*
G01*
X137394142Y-69040973D01*
G75*
G02*
X136637626Y-68297547I-6545J749971D01*
G01*
G37*
D12*
X129837500Y-77718750D03*
D13*
X134937500Y-79718750D03*
X115887500Y-79718750D03*
D12*
X110787500Y-77718750D03*
G36*
G01*
X117587626Y-68297547D02*
X117587626Y-68297547D01*
G75*
G02*
X118331052Y-67541031I749971J6545D01*
G01*
X121230942Y-67515725D01*
G75*
G02*
X121987458Y-68259151I6545J-749971D01*
G01*
X121987458Y-68259151D01*
G75*
G02*
X121244032Y-69015667I-749971J-6545D01*
G01*
X118344142Y-69040973D01*
G75*
G02*
X117587626Y-68297547I-6545J749971D01*
G01*
G37*
D11*
X113387500Y-69818750D03*
D10*
X118387500Y-69018750D03*
G36*
G01*
X111195726Y-70465793D02*
X112533988Y-68979503D01*
G75*
G02*
X114228719Y-68890686I891774J-802957D01*
G01*
X114228719Y-68890686D01*
G75*
G02*
X114317536Y-70585417I-802957J-891774D01*
G01*
X112979274Y-72071707D01*
G75*
G02*
X111284543Y-72160524I-891774J802957D01*
G01*
X111284543Y-72160524D01*
G75*
G02*
X111195726Y-70465793I802957J891774D01*
G01*
G37*
G36*
G01*
X92145726Y-70465793D02*
X93483988Y-68979503D01*
G75*
G02*
X95178719Y-68890686I891774J-802957D01*
G01*
X95178719Y-68890686D01*
G75*
G02*
X95267536Y-70585417I-802957J-891774D01*
G01*
X93929274Y-72071707D01*
G75*
G02*
X92234543Y-72160524I-891774J802957D01*
G01*
X92234543Y-72160524D01*
G75*
G02*
X92145726Y-70465793I802957J891774D01*
G01*
G37*
X99337500Y-69018750D03*
D11*
X94337500Y-69818750D03*
G36*
G01*
X98537626Y-68297547D02*
X98537626Y-68297547D01*
G75*
G02*
X99281052Y-67541031I749971J6545D01*
G01*
X102180942Y-67515725D01*
G75*
G02*
X102937458Y-68259151I6545J-749971D01*
G01*
X102937458Y-68259151D01*
G75*
G02*
X102194032Y-69015667I-749971J-6545D01*
G01*
X99294142Y-69040973D01*
G75*
G02*
X98537626Y-68297547I-6545J749971D01*
G01*
G37*
D12*
X91737500Y-77718750D03*
D13*
X96837500Y-79718750D03*
X153987500Y-60668750D03*
D12*
X148887500Y-58668750D03*
G36*
G01*
X155687626Y-49247547D02*
X155687626Y-49247547D01*
G75*
G02*
X156431052Y-48491031I749971J6545D01*
G01*
X159330942Y-48465725D01*
G75*
G02*
X160087458Y-49209151I6545J-749971D01*
G01*
X160087458Y-49209151D01*
G75*
G02*
X159344032Y-49965667I-749971J-6545D01*
G01*
X156444142Y-49990973D01*
G75*
G02*
X155687626Y-49247547I-6545J749971D01*
G01*
G37*
D11*
X151487500Y-50768750D03*
D10*
X156487500Y-49968750D03*
G36*
G01*
X149295726Y-51415793D02*
X150633988Y-49929503D01*
G75*
G02*
X152328719Y-49840686I891774J-802957D01*
G01*
X152328719Y-49840686D01*
G75*
G02*
X152417536Y-51535417I-802957J-891774D01*
G01*
X151079274Y-53021707D01*
G75*
G02*
X149384543Y-53110524I-891774J802957D01*
G01*
X149384543Y-53110524D01*
G75*
G02*
X149295726Y-51415793I802957J891774D01*
G01*
G37*
G36*
G01*
X130245726Y-51415793D02*
X131583988Y-49929503D01*
G75*
G02*
X133278719Y-49840686I891774J-802957D01*
G01*
X133278719Y-49840686D01*
G75*
G02*
X133367536Y-51535417I-802957J-891774D01*
G01*
X132029274Y-53021707D01*
G75*
G02*
X130334543Y-53110524I-891774J802957D01*
G01*
X130334543Y-53110524D01*
G75*
G02*
X130245726Y-51415793I802957J891774D01*
G01*
G37*
X137437500Y-49968750D03*
D11*
X132437500Y-50768750D03*
G36*
G01*
X136637626Y-49247547D02*
X136637626Y-49247547D01*
G75*
G02*
X137381052Y-48491031I749971J6545D01*
G01*
X140280942Y-48465725D01*
G75*
G02*
X141037458Y-49209151I6545J-749971D01*
G01*
X141037458Y-49209151D01*
G75*
G02*
X140294032Y-49965667I-749971J-6545D01*
G01*
X137394142Y-49990973D01*
G75*
G02*
X136637626Y-49247547I-6545J749971D01*
G01*
G37*
D12*
X129837500Y-58668750D03*
D13*
X134937500Y-60668750D03*
X115887500Y-60668750D03*
D12*
X110787500Y-58668750D03*
G36*
G01*
X117587626Y-49247547D02*
X117587626Y-49247547D01*
G75*
G02*
X118331052Y-48491031I749971J6545D01*
G01*
X121230942Y-48465725D01*
G75*
G02*
X121987458Y-49209151I6545J-749971D01*
G01*
X121987458Y-49209151D01*
G75*
G02*
X121244032Y-49965667I-749971J-6545D01*
G01*
X118344142Y-49990973D01*
G75*
G02*
X117587626Y-49247547I-6545J749971D01*
G01*
G37*
D11*
X113387500Y-50768750D03*
D10*
X118387500Y-49968750D03*
G36*
G01*
X111195726Y-51415793D02*
X112533988Y-49929503D01*
G75*
G02*
X114228719Y-49840686I891774J-802957D01*
G01*
X114228719Y-49840686D01*
G75*
G02*
X114317536Y-51535417I-802957J-891774D01*
G01*
X112979274Y-53021707D01*
G75*
G02*
X111284543Y-53110524I-891774J802957D01*
G01*
X111284543Y-53110524D01*
G75*
G02*
X111195726Y-51415793I802957J891774D01*
G01*
G37*
G36*
G01*
X92145726Y-51415793D02*
X93483988Y-49929503D01*
G75*
G02*
X95178719Y-49840686I891774J-802957D01*
G01*
X95178719Y-49840686D01*
G75*
G02*
X95267536Y-51535417I-802957J-891774D01*
G01*
X93929274Y-53021707D01*
G75*
G02*
X92234543Y-53110524I-891774J802957D01*
G01*
X92234543Y-53110524D01*
G75*
G02*
X92145726Y-51415793I802957J891774D01*
G01*
G37*
X99337500Y-49968750D03*
D11*
X94337500Y-50768750D03*
G36*
G01*
X98537626Y-49247547D02*
X98537626Y-49247547D01*
G75*
G02*
X99281052Y-48491031I749971J6545D01*
G01*
X102180942Y-48465725D01*
G75*
G02*
X102937458Y-49209151I6545J-749971D01*
G01*
X102937458Y-49209151D01*
G75*
G02*
X102194032Y-49965667I-749971J-6545D01*
G01*
X99294142Y-49990973D01*
G75*
G02*
X98537626Y-49247547I-6545J749971D01*
G01*
G37*
D12*
X91737500Y-58668750D03*
D13*
X96837500Y-60668750D03*
G36*
G01*
X150634543Y-88035524D02*
X149148253Y-86697262D01*
G75*
G02*
X149059436Y-85002531I802957J891774D01*
G01*
X149059436Y-85002531D01*
G75*
G02*
X150754167Y-84913714I891774J-802957D01*
G01*
X152240457Y-86251976D01*
G75*
G02*
X152329274Y-87946707I-802957J-891774D01*
G01*
X152329274Y-87946707D01*
G75*
G02*
X150634543Y-88035524I-891774J802957D01*
G01*
G37*
D14*
X149187500Y-80843750D03*
D11*
X149987500Y-85843750D03*
G36*
G01*
X148466297Y-81643624D02*
X148466297Y-81643624D01*
G75*
G02*
X147709781Y-80900198I-6545J749971D01*
G01*
X147684475Y-78000308D01*
G75*
G02*
X148427901Y-77243792I749971J6545D01*
G01*
X148427901Y-77243792D01*
G75*
G02*
X149184417Y-77987218I6545J-749971D01*
G01*
X149209723Y-80887108D01*
G75*
G02*
X148466297Y-81643624I-749971J-6545D01*
G01*
G37*
D15*
X157887500Y-88443750D03*
D16*
X159887500Y-83343750D03*
G36*
G01*
X150634543Y-126135524D02*
X149148253Y-124797262D01*
G75*
G02*
X149059436Y-123102531I802957J891774D01*
G01*
X149059436Y-123102531D01*
G75*
G02*
X150754167Y-123013714I891774J-802957D01*
G01*
X152240457Y-124351976D01*
G75*
G02*
X152329274Y-126046707I-802957J-891774D01*
G01*
X152329274Y-126046707D01*
G75*
G02*
X150634543Y-126135524I-891774J802957D01*
G01*
G37*
D14*
X149187500Y-118943750D03*
D11*
X149987500Y-123943750D03*
G36*
G01*
X148466297Y-119743624D02*
X148466297Y-119743624D01*
G75*
G02*
X147709781Y-119000198I-6545J749971D01*
G01*
X147684475Y-116100308D01*
G75*
G02*
X148427901Y-115343792I749971J6545D01*
G01*
X148427901Y-115343792D01*
G75*
G02*
X149184417Y-116087218I6545J-749971D01*
G01*
X149209723Y-118987108D01*
G75*
G02*
X148466297Y-119743624I-749971J-6545D01*
G01*
G37*
D15*
X157887500Y-126543750D03*
D16*
X159887500Y-121443750D03*
G36*
G01*
X101670726Y-127615793D02*
X103008988Y-126129503D01*
G75*
G02*
X104703719Y-126040686I891774J-802957D01*
G01*
X104703719Y-126040686D01*
G75*
G02*
X104792536Y-127735417I-802957J-891774D01*
G01*
X103454274Y-129221707D01*
G75*
G02*
X101759543Y-129310524I-891774J802957D01*
G01*
X101759543Y-129310524D01*
G75*
G02*
X101670726Y-127615793I802957J891774D01*
G01*
G37*
D10*
X108862500Y-126168750D03*
D11*
X103862500Y-126968750D03*
G36*
G01*
X108062626Y-125447547D02*
X108062626Y-125447547D01*
G75*
G02*
X108806052Y-124691031I749971J6545D01*
G01*
X111705942Y-124665725D01*
G75*
G02*
X112462458Y-125409151I6545J-749971D01*
G01*
X112462458Y-125409151D01*
G75*
G02*
X111719032Y-126165667I-749971J-6545D01*
G01*
X108819142Y-126190973D01*
G75*
G02*
X108062626Y-125447547I-6545J749971D01*
G01*
G37*
D12*
X101262500Y-134868750D03*
D13*
X106362500Y-136868750D03*
M02*
