G04 #@! TF.GenerationSoftware,KiCad,Pcbnew,(5.1.10)-1*
G04 #@! TF.CreationDate,2021-05-19T19:05:48-07:00*
G04 #@! TF.ProjectId,numpad,6e756d70-6164-42e6-9b69-6361645f7063,rev?*
G04 #@! TF.SameCoordinates,Original*
G04 #@! TF.FileFunction,Legend,Bot*
G04 #@! TF.FilePolarity,Positive*
%FSLAX46Y46*%
G04 Gerber Fmt 4.6, Leading zero omitted, Abs format (unit mm)*
G04 Created by KiCad (PCBNEW (5.1.10)-1) date 2021-05-19 19:05:48*
%MOMM*%
%LPD*%
G01*
G04 APERTURE LIST*
%ADD10C,0.150000*%
%ADD11C,0.120000*%
%ADD12C,0.125000*%
%ADD13O,2.400000X2.950000*%
%ADD14C,2.400000*%
%ADD15O,2.200000X1.600000*%
%ADD16O,2.200000X1.500000*%
%ADD17O,2.950000X2.400000*%
%ADD18O,1.600000X2.200000*%
%ADD19O,1.500000X2.200000*%
G04 APERTURE END LIST*
D10*
X150343750Y-100793750D02*
X156043750Y-100793750D01*
X156043750Y-100793750D02*
X156043750Y-101043750D01*
X150343750Y-100793750D02*
X150343750Y-101043750D01*
X150343750Y-103993750D02*
X150343750Y-103743750D01*
X150343750Y-103993750D02*
X156043750Y-103993750D01*
X156043750Y-103993750D02*
X156043750Y-103743750D01*
X135087500Y-46275000D02*
X134787500Y-46275000D01*
X135187500Y-46125000D02*
X134687500Y-46125000D01*
X135287500Y-45975000D02*
X134587500Y-45975000D01*
X134937500Y-46475000D02*
X135437500Y-45825000D01*
X134437500Y-45825000D02*
X134937500Y-46475000D01*
X135437500Y-45825000D02*
X134437500Y-45825000D01*
X131187500Y-45475000D02*
X138687500Y-45475000D01*
X131187500Y-46775000D02*
X131187500Y-45475000D01*
X138687500Y-46775000D02*
X131187500Y-46775000D01*
X138687500Y-45475000D02*
X138687500Y-46775000D01*
X143837500Y-48375000D02*
X143837500Y-49375000D01*
X126037500Y-48375000D02*
X126037500Y-49375000D01*
X143837500Y-48375000D02*
X142837500Y-48375000D01*
X126037500Y-48375000D02*
X126987500Y-48375000D01*
X143837500Y-80375000D02*
X143837500Y-81425000D01*
X126037500Y-80425000D02*
X126037500Y-81425000D01*
X143837500Y-81425000D02*
X142837500Y-81425000D01*
X126037500Y-81425000D02*
X127047500Y-81425000D01*
X154741380Y-106243380D02*
X155074714Y-105767190D01*
X155312809Y-106243380D02*
X155312809Y-105243380D01*
X154931857Y-105243380D01*
X154836619Y-105291000D01*
X154789000Y-105338619D01*
X154741380Y-105433857D01*
X154741380Y-105576714D01*
X154789000Y-105671952D01*
X154836619Y-105719571D01*
X154931857Y-105767190D01*
X155312809Y-105767190D01*
X154312809Y-105719571D02*
X153979476Y-105719571D01*
X153836619Y-106243380D02*
X154312809Y-106243380D01*
X154312809Y-105243380D01*
X153836619Y-105243380D01*
X153455666Y-106195761D02*
X153312809Y-106243380D01*
X153074714Y-106243380D01*
X152979476Y-106195761D01*
X152931857Y-106148142D01*
X152884238Y-106052904D01*
X152884238Y-105957666D01*
X152931857Y-105862428D01*
X152979476Y-105814809D01*
X153074714Y-105767190D01*
X153265190Y-105719571D01*
X153360428Y-105671952D01*
X153408047Y-105624333D01*
X153455666Y-105529095D01*
X153455666Y-105433857D01*
X153408047Y-105338619D01*
X153360428Y-105291000D01*
X153265190Y-105243380D01*
X153027095Y-105243380D01*
X152884238Y-105291000D01*
X152455666Y-105719571D02*
X152122333Y-105719571D01*
X151979476Y-106243380D02*
X152455666Y-106243380D01*
X152455666Y-105243380D01*
X151979476Y-105243380D01*
X151693761Y-105243380D02*
X151122333Y-105243380D01*
X151408047Y-106243380D02*
X151408047Y-105243380D01*
D11*
X137433928Y-48064285D02*
X137433928Y-47314285D01*
X137183928Y-47850000D01*
X136933928Y-47314285D01*
X136933928Y-48064285D01*
X136576785Y-48064285D02*
X136576785Y-47564285D01*
X136576785Y-47314285D02*
X136612500Y-47350000D01*
X136576785Y-47385714D01*
X136541071Y-47350000D01*
X136576785Y-47314285D01*
X136576785Y-47385714D01*
X135898214Y-48028571D02*
X135969642Y-48064285D01*
X136112500Y-48064285D01*
X136183928Y-48028571D01*
X136219642Y-47992857D01*
X136255357Y-47921428D01*
X136255357Y-47707142D01*
X136219642Y-47635714D01*
X136183928Y-47600000D01*
X136112500Y-47564285D01*
X135969642Y-47564285D01*
X135898214Y-47600000D01*
X135576785Y-48064285D02*
X135576785Y-47564285D01*
X135576785Y-47707142D02*
X135541071Y-47635714D01*
X135505357Y-47600000D01*
X135433928Y-47564285D01*
X135362500Y-47564285D01*
X135005357Y-48064285D02*
X135076785Y-48028571D01*
X135112500Y-47992857D01*
X135148214Y-47921428D01*
X135148214Y-47707142D01*
X135112500Y-47635714D01*
X135076785Y-47600000D01*
X135005357Y-47564285D01*
X134898214Y-47564285D01*
X134826785Y-47600000D01*
X134791071Y-47635714D01*
X134755357Y-47707142D01*
X134755357Y-47921428D01*
X134791071Y-47992857D01*
X134826785Y-48028571D01*
X134898214Y-48064285D01*
X135005357Y-48064285D01*
X134433928Y-47314285D02*
X134433928Y-47921428D01*
X134398214Y-47992857D01*
X134362500Y-48028571D01*
X134291071Y-48064285D01*
X134148214Y-48064285D01*
X134076785Y-48028571D01*
X134041071Y-47992857D01*
X134005357Y-47921428D01*
X134005357Y-47314285D01*
X133683928Y-48028571D02*
X133576785Y-48064285D01*
X133398214Y-48064285D01*
X133326785Y-48028571D01*
X133291071Y-47992857D01*
X133255357Y-47921428D01*
X133255357Y-47850000D01*
X133291071Y-47778571D01*
X133326785Y-47742857D01*
X133398214Y-47707142D01*
X133541071Y-47671428D01*
X133612500Y-47635714D01*
X133648214Y-47600000D01*
X133683928Y-47528571D01*
X133683928Y-47457142D01*
X133648214Y-47385714D01*
X133612500Y-47350000D01*
X133541071Y-47314285D01*
X133362500Y-47314285D01*
X133255357Y-47350000D01*
X132683928Y-47671428D02*
X132576785Y-47707142D01*
X132541071Y-47742857D01*
X132505357Y-47814285D01*
X132505357Y-47921428D01*
X132541071Y-47992857D01*
X132576785Y-48028571D01*
X132648214Y-48064285D01*
X132933928Y-48064285D01*
X132933928Y-47314285D01*
X132683928Y-47314285D01*
X132612500Y-47350000D01*
X132576785Y-47385714D01*
X132541071Y-47457142D01*
X132541071Y-47528571D01*
X132576785Y-47600000D01*
X132612500Y-47635714D01*
X132683928Y-47671428D01*
X132933928Y-47671428D01*
D12*
X125273690Y-77521428D02*
X125177976Y-77557142D01*
X125146071Y-77592857D01*
X125114166Y-77664285D01*
X125114166Y-77771428D01*
X125146071Y-77842857D01*
X125177976Y-77878571D01*
X125241785Y-77914285D01*
X125497023Y-77914285D01*
X125497023Y-77164285D01*
X125273690Y-77164285D01*
X125209880Y-77200000D01*
X125177976Y-77235714D01*
X125146071Y-77307142D01*
X125146071Y-77378571D01*
X125177976Y-77450000D01*
X125209880Y-77485714D01*
X125273690Y-77521428D01*
X125497023Y-77521428D01*
X124539880Y-77414285D02*
X124539880Y-77914285D01*
X124699404Y-77128571D02*
X124858928Y-77664285D01*
X124444166Y-77664285D01*
X123710357Y-77128571D02*
X124284642Y-78092857D01*
X123391309Y-77485714D02*
X123455119Y-77450000D01*
X123487023Y-77414285D01*
X123518928Y-77342857D01*
X123518928Y-77307142D01*
X123487023Y-77235714D01*
X123455119Y-77200000D01*
X123391309Y-77164285D01*
X123263690Y-77164285D01*
X123199880Y-77200000D01*
X123167976Y-77235714D01*
X123136071Y-77307142D01*
X123136071Y-77342857D01*
X123167976Y-77414285D01*
X123199880Y-77450000D01*
X123263690Y-77485714D01*
X123391309Y-77485714D01*
X123455119Y-77521428D01*
X123487023Y-77557142D01*
X123518928Y-77628571D01*
X123518928Y-77771428D01*
X123487023Y-77842857D01*
X123455119Y-77878571D01*
X123391309Y-77914285D01*
X123263690Y-77914285D01*
X123199880Y-77878571D01*
X123167976Y-77842857D01*
X123136071Y-77771428D01*
X123136071Y-77628571D01*
X123167976Y-77557142D01*
X123199880Y-77521428D01*
X123263690Y-77485714D01*
X125701071Y-55114285D02*
X125701071Y-54364285D01*
X125541547Y-54364285D01*
X125445833Y-54400000D01*
X125382023Y-54471428D01*
X125350119Y-54542857D01*
X125318214Y-54685714D01*
X125318214Y-54792857D01*
X125350119Y-54935714D01*
X125382023Y-55007142D01*
X125445833Y-55078571D01*
X125541547Y-55114285D01*
X125701071Y-55114285D01*
X125062976Y-54435714D02*
X125031071Y-54400000D01*
X124967261Y-54364285D01*
X124807738Y-54364285D01*
X124743928Y-54400000D01*
X124712023Y-54435714D01*
X124680119Y-54507142D01*
X124680119Y-54578571D01*
X124712023Y-54685714D01*
X125094880Y-55114285D01*
X124680119Y-55114285D01*
X123914404Y-54328571D02*
X124488690Y-55292857D01*
X123308214Y-55114285D02*
X123531547Y-54757142D01*
X123691071Y-55114285D02*
X123691071Y-54364285D01*
X123435833Y-54364285D01*
X123372023Y-54400000D01*
X123340119Y-54435714D01*
X123308214Y-54507142D01*
X123308214Y-54614285D01*
X123340119Y-54685714D01*
X123372023Y-54721428D01*
X123435833Y-54757142D01*
X123691071Y-54757142D01*
X123084880Y-54364285D02*
X122638214Y-55114285D01*
X122638214Y-54364285D02*
X123084880Y-55114285D01*
X122032023Y-55114285D02*
X122414880Y-55114285D01*
X122223452Y-55114285D02*
X122223452Y-54364285D01*
X122287261Y-54471428D01*
X122351071Y-54542857D01*
X122414880Y-54578571D01*
X125273690Y-80021428D02*
X125177976Y-80057142D01*
X125146071Y-80092857D01*
X125114166Y-80164285D01*
X125114166Y-80271428D01*
X125146071Y-80342857D01*
X125177976Y-80378571D01*
X125241785Y-80414285D01*
X125497023Y-80414285D01*
X125497023Y-79664285D01*
X125273690Y-79664285D01*
X125209880Y-79700000D01*
X125177976Y-79735714D01*
X125146071Y-79807142D01*
X125146071Y-79878571D01*
X125177976Y-79950000D01*
X125209880Y-79985714D01*
X125273690Y-80021428D01*
X125497023Y-80021428D01*
X124507976Y-79664285D02*
X124827023Y-79664285D01*
X124858928Y-80021428D01*
X124827023Y-79985714D01*
X124763214Y-79950000D01*
X124603690Y-79950000D01*
X124539880Y-79985714D01*
X124507976Y-80021428D01*
X124476071Y-80092857D01*
X124476071Y-80271428D01*
X124507976Y-80342857D01*
X124539880Y-80378571D01*
X124603690Y-80414285D01*
X124763214Y-80414285D01*
X124827023Y-80378571D01*
X124858928Y-80342857D01*
X123710357Y-79628571D02*
X124284642Y-80592857D01*
X123455119Y-80414285D02*
X123327500Y-80414285D01*
X123263690Y-80378571D01*
X123231785Y-80342857D01*
X123167976Y-80235714D01*
X123136071Y-80092857D01*
X123136071Y-79807142D01*
X123167976Y-79735714D01*
X123199880Y-79700000D01*
X123263690Y-79664285D01*
X123391309Y-79664285D01*
X123455119Y-79700000D01*
X123487023Y-79735714D01*
X123518928Y-79807142D01*
X123518928Y-79985714D01*
X123487023Y-80057142D01*
X123455119Y-80092857D01*
X123391309Y-80128571D01*
X123263690Y-80128571D01*
X123199880Y-80092857D01*
X123167976Y-80057142D01*
X123136071Y-79985714D01*
X125114166Y-70192857D02*
X125146071Y-70228571D01*
X125241785Y-70264285D01*
X125305595Y-70264285D01*
X125401309Y-70228571D01*
X125465119Y-70157142D01*
X125497023Y-70085714D01*
X125528928Y-69942857D01*
X125528928Y-69835714D01*
X125497023Y-69692857D01*
X125465119Y-69621428D01*
X125401309Y-69550000D01*
X125305595Y-69514285D01*
X125241785Y-69514285D01*
X125146071Y-69550000D01*
X125114166Y-69585714D01*
X124539880Y-69514285D02*
X124667500Y-69514285D01*
X124731309Y-69550000D01*
X124763214Y-69585714D01*
X124827023Y-69692857D01*
X124858928Y-69835714D01*
X124858928Y-70121428D01*
X124827023Y-70192857D01*
X124795119Y-70228571D01*
X124731309Y-70264285D01*
X124603690Y-70264285D01*
X124539880Y-70228571D01*
X124507976Y-70192857D01*
X124476071Y-70121428D01*
X124476071Y-69942857D01*
X124507976Y-69871428D01*
X124539880Y-69835714D01*
X124603690Y-69800000D01*
X124731309Y-69800000D01*
X124795119Y-69835714D01*
X124827023Y-69871428D01*
X124858928Y-69942857D01*
X123710357Y-69478571D02*
X124284642Y-70442857D01*
X123167976Y-69514285D02*
X123487023Y-69514285D01*
X123518928Y-69871428D01*
X123487023Y-69835714D01*
X123423214Y-69800000D01*
X123263690Y-69800000D01*
X123199880Y-69835714D01*
X123167976Y-69871428D01*
X123136071Y-69942857D01*
X123136071Y-70121428D01*
X123167976Y-70192857D01*
X123199880Y-70228571D01*
X123263690Y-70264285D01*
X123423214Y-70264285D01*
X123487023Y-70228571D01*
X123518928Y-70192857D01*
X125655119Y-65278571D02*
X125559404Y-65314285D01*
X125399880Y-65314285D01*
X125336071Y-65278571D01*
X125304166Y-65242857D01*
X125272261Y-65171428D01*
X125272261Y-65100000D01*
X125304166Y-65028571D01*
X125336071Y-64992857D01*
X125399880Y-64957142D01*
X125527500Y-64921428D01*
X125591309Y-64885714D01*
X125623214Y-64850000D01*
X125655119Y-64778571D01*
X125655119Y-64707142D01*
X125623214Y-64635714D01*
X125591309Y-64600000D01*
X125527500Y-64564285D01*
X125367976Y-64564285D01*
X125272261Y-64600000D01*
X124602261Y-65242857D02*
X124634166Y-65278571D01*
X124729880Y-65314285D01*
X124793690Y-65314285D01*
X124889404Y-65278571D01*
X124953214Y-65207142D01*
X124985119Y-65135714D01*
X125017023Y-64992857D01*
X125017023Y-64885714D01*
X124985119Y-64742857D01*
X124953214Y-64671428D01*
X124889404Y-64600000D01*
X124793690Y-64564285D01*
X124729880Y-64564285D01*
X124634166Y-64600000D01*
X124602261Y-64635714D01*
X123996071Y-65314285D02*
X124315119Y-65314285D01*
X124315119Y-64564285D01*
X123294166Y-64528571D02*
X123868452Y-65492857D01*
X123070833Y-65314285D02*
X123070833Y-64564285D01*
X122911309Y-64564285D01*
X122815595Y-64600000D01*
X122751785Y-64671428D01*
X122719880Y-64742857D01*
X122687976Y-64885714D01*
X122687976Y-64992857D01*
X122719880Y-65135714D01*
X122751785Y-65207142D01*
X122815595Y-65278571D01*
X122911309Y-65314285D01*
X123070833Y-65314285D01*
X122273214Y-64564285D02*
X122209404Y-64564285D01*
X122145595Y-64600000D01*
X122113690Y-64635714D01*
X122081785Y-64707142D01*
X122049880Y-64850000D01*
X122049880Y-65028571D01*
X122081785Y-65171428D01*
X122113690Y-65242857D01*
X122145595Y-65278571D01*
X122209404Y-65314285D01*
X122273214Y-65314285D01*
X122337023Y-65278571D01*
X122368928Y-65242857D01*
X122400833Y-65171428D01*
X122432738Y-65028571D01*
X122432738Y-64850000D01*
X122400833Y-64707142D01*
X122368928Y-64635714D01*
X122337023Y-64600000D01*
X122273214Y-64564285D01*
X121284166Y-64528571D02*
X121858452Y-65492857D01*
X121124642Y-64564285D02*
X120709880Y-64564285D01*
X120933214Y-64850000D01*
X120837500Y-64850000D01*
X120773690Y-64885714D01*
X120741785Y-64921428D01*
X120709880Y-64992857D01*
X120709880Y-65171428D01*
X120741785Y-65242857D01*
X120773690Y-65278571D01*
X120837500Y-65314285D01*
X121028928Y-65314285D01*
X121092738Y-65278571D01*
X121124642Y-65242857D01*
X125671071Y-62778571D02*
X125575357Y-62814285D01*
X125415833Y-62814285D01*
X125352023Y-62778571D01*
X125320119Y-62742857D01*
X125288214Y-62671428D01*
X125288214Y-62600000D01*
X125320119Y-62528571D01*
X125352023Y-62492857D01*
X125415833Y-62457142D01*
X125543452Y-62421428D01*
X125607261Y-62385714D01*
X125639166Y-62350000D01*
X125671071Y-62278571D01*
X125671071Y-62207142D01*
X125639166Y-62135714D01*
X125607261Y-62100000D01*
X125543452Y-62064285D01*
X125383928Y-62064285D01*
X125288214Y-62100000D01*
X125001071Y-62814285D02*
X125001071Y-62064285D01*
X124841547Y-62064285D01*
X124745833Y-62100000D01*
X124682023Y-62171428D01*
X124650119Y-62242857D01*
X124618214Y-62385714D01*
X124618214Y-62492857D01*
X124650119Y-62635714D01*
X124682023Y-62707142D01*
X124745833Y-62778571D01*
X124841547Y-62814285D01*
X125001071Y-62814285D01*
X124362976Y-62600000D02*
X124043928Y-62600000D01*
X124426785Y-62814285D02*
X124203452Y-62064285D01*
X123980119Y-62814285D01*
X123278214Y-62028571D02*
X123852500Y-62992857D01*
X123054880Y-62814285D02*
X123054880Y-62064285D01*
X122895357Y-62064285D01*
X122799642Y-62100000D01*
X122735833Y-62171428D01*
X122703928Y-62242857D01*
X122672023Y-62385714D01*
X122672023Y-62492857D01*
X122703928Y-62635714D01*
X122735833Y-62707142D01*
X122799642Y-62778571D01*
X122895357Y-62814285D01*
X123054880Y-62814285D01*
X122033928Y-62814285D02*
X122416785Y-62814285D01*
X122225357Y-62814285D02*
X122225357Y-62064285D01*
X122289166Y-62171428D01*
X122352976Y-62242857D01*
X122416785Y-62278571D01*
X121268214Y-62028571D02*
X121842500Y-62992857D01*
X121076785Y-62135714D02*
X121044880Y-62100000D01*
X120981071Y-62064285D01*
X120821547Y-62064285D01*
X120757738Y-62100000D01*
X120725833Y-62135714D01*
X120693928Y-62207142D01*
X120693928Y-62278571D01*
X120725833Y-62385714D01*
X121108690Y-62814285D01*
X120693928Y-62814285D01*
X125497023Y-67714285D02*
X125497023Y-66964285D01*
X125337500Y-66964285D01*
X125241785Y-67000000D01*
X125177976Y-67071428D01*
X125146071Y-67142857D01*
X125114166Y-67285714D01*
X125114166Y-67392857D01*
X125146071Y-67535714D01*
X125177976Y-67607142D01*
X125241785Y-67678571D01*
X125337500Y-67714285D01*
X125497023Y-67714285D01*
X124539880Y-67214285D02*
X124539880Y-67714285D01*
X124699404Y-66928571D02*
X124858928Y-67464285D01*
X124444166Y-67464285D01*
X123710357Y-66928571D02*
X124284642Y-67892857D01*
X123199880Y-67214285D02*
X123199880Y-67714285D01*
X123359404Y-66928571D02*
X123518928Y-67464285D01*
X123104166Y-67464285D01*
X125621309Y-52564285D02*
X125621309Y-51814285D01*
X125461785Y-51814285D01*
X125366071Y-51850000D01*
X125302261Y-51921428D01*
X125270357Y-51992857D01*
X125238452Y-52135714D01*
X125238452Y-52242857D01*
X125270357Y-52385714D01*
X125302261Y-52457142D01*
X125366071Y-52528571D01*
X125461785Y-52564285D01*
X125621309Y-52564285D01*
X125015119Y-51814285D02*
X124600357Y-51814285D01*
X124823690Y-52100000D01*
X124727976Y-52100000D01*
X124664166Y-52135714D01*
X124632261Y-52171428D01*
X124600357Y-52242857D01*
X124600357Y-52421428D01*
X124632261Y-52492857D01*
X124664166Y-52528571D01*
X124727976Y-52564285D01*
X124919404Y-52564285D01*
X124983214Y-52528571D01*
X125015119Y-52492857D01*
X123834642Y-51778571D02*
X124408928Y-52742857D01*
X123707023Y-51814285D02*
X123324166Y-51814285D01*
X123515595Y-52564285D02*
X123515595Y-51814285D01*
X123164642Y-51814285D02*
X122717976Y-52564285D01*
X122717976Y-51814285D02*
X123164642Y-52564285D01*
X122335119Y-51814285D02*
X122271309Y-51814285D01*
X122207500Y-51850000D01*
X122175595Y-51885714D01*
X122143690Y-51957142D01*
X122111785Y-52100000D01*
X122111785Y-52278571D01*
X122143690Y-52421428D01*
X122175595Y-52492857D01*
X122207500Y-52528571D01*
X122271309Y-52564285D01*
X122335119Y-52564285D01*
X122398928Y-52528571D01*
X122430833Y-52492857D01*
X122462738Y-52421428D01*
X122494642Y-52278571D01*
X122494642Y-52100000D01*
X122462738Y-51957142D01*
X122430833Y-51885714D01*
X122398928Y-51850000D01*
X122335119Y-51814285D01*
X125342976Y-59450000D02*
X125406785Y-59414285D01*
X125502500Y-59414285D01*
X125598214Y-59450000D01*
X125662023Y-59521428D01*
X125693928Y-59592857D01*
X125725833Y-59735714D01*
X125725833Y-59842857D01*
X125693928Y-59985714D01*
X125662023Y-60057142D01*
X125598214Y-60128571D01*
X125502500Y-60164285D01*
X125438690Y-60164285D01*
X125342976Y-60128571D01*
X125311071Y-60092857D01*
X125311071Y-59842857D01*
X125438690Y-59842857D01*
X125023928Y-60164285D02*
X125023928Y-59414285D01*
X124641071Y-60164285D01*
X124641071Y-59414285D01*
X124322023Y-60164285D02*
X124322023Y-59414285D01*
X124162500Y-59414285D01*
X124066785Y-59450000D01*
X124002976Y-59521428D01*
X123971071Y-59592857D01*
X123939166Y-59735714D01*
X123939166Y-59842857D01*
X123971071Y-59985714D01*
X124002976Y-60057142D01*
X124066785Y-60128571D01*
X124162500Y-60164285D01*
X124322023Y-60164285D01*
X125342976Y-57000000D02*
X125406785Y-56964285D01*
X125502500Y-56964285D01*
X125598214Y-57000000D01*
X125662023Y-57071428D01*
X125693928Y-57142857D01*
X125725833Y-57285714D01*
X125725833Y-57392857D01*
X125693928Y-57535714D01*
X125662023Y-57607142D01*
X125598214Y-57678571D01*
X125502500Y-57714285D01*
X125438690Y-57714285D01*
X125342976Y-57678571D01*
X125311071Y-57642857D01*
X125311071Y-57392857D01*
X125438690Y-57392857D01*
X125023928Y-57714285D02*
X125023928Y-56964285D01*
X124641071Y-57714285D01*
X124641071Y-56964285D01*
X124322023Y-57714285D02*
X124322023Y-56964285D01*
X124162500Y-56964285D01*
X124066785Y-57000000D01*
X124002976Y-57071428D01*
X123971071Y-57142857D01*
X123939166Y-57285714D01*
X123939166Y-57392857D01*
X123971071Y-57535714D01*
X124002976Y-57607142D01*
X124066785Y-57678571D01*
X124162500Y-57714285D01*
X124322023Y-57714285D01*
X125497023Y-72814285D02*
X125497023Y-72064285D01*
X125337500Y-72064285D01*
X125241785Y-72100000D01*
X125177976Y-72171428D01*
X125146071Y-72242857D01*
X125114166Y-72385714D01*
X125114166Y-72492857D01*
X125146071Y-72635714D01*
X125177976Y-72707142D01*
X125241785Y-72778571D01*
X125337500Y-72814285D01*
X125497023Y-72814285D01*
X124890833Y-72064285D02*
X124444166Y-72064285D01*
X124731309Y-72814285D01*
X123710357Y-72028571D02*
X124284642Y-72992857D01*
X123199880Y-72064285D02*
X123327500Y-72064285D01*
X123391309Y-72100000D01*
X123423214Y-72135714D01*
X123487023Y-72242857D01*
X123518928Y-72385714D01*
X123518928Y-72671428D01*
X123487023Y-72742857D01*
X123455119Y-72778571D01*
X123391309Y-72814285D01*
X123263690Y-72814285D01*
X123199880Y-72778571D01*
X123167976Y-72742857D01*
X123136071Y-72671428D01*
X123136071Y-72492857D01*
X123167976Y-72421428D01*
X123199880Y-72385714D01*
X123263690Y-72350000D01*
X123391309Y-72350000D01*
X123455119Y-72385714D01*
X123487023Y-72421428D01*
X123518928Y-72492857D01*
X125465119Y-74971428D02*
X125241785Y-74971428D01*
X125146071Y-75364285D02*
X125465119Y-75364285D01*
X125465119Y-74614285D01*
X125146071Y-74614285D01*
X124571785Y-74614285D02*
X124699404Y-74614285D01*
X124763214Y-74650000D01*
X124795119Y-74685714D01*
X124858928Y-74792857D01*
X124890833Y-74935714D01*
X124890833Y-75221428D01*
X124858928Y-75292857D01*
X124827023Y-75328571D01*
X124763214Y-75364285D01*
X124635595Y-75364285D01*
X124571785Y-75328571D01*
X124539880Y-75292857D01*
X124507976Y-75221428D01*
X124507976Y-75042857D01*
X124539880Y-74971428D01*
X124571785Y-74935714D01*
X124635595Y-74900000D01*
X124763214Y-74900000D01*
X124827023Y-74935714D01*
X124858928Y-74971428D01*
X124890833Y-75042857D01*
X123742261Y-74578571D02*
X124316547Y-75542857D01*
X123582738Y-74614285D02*
X123136071Y-74614285D01*
X123423214Y-75364285D01*
X146915119Y-77964285D02*
X147297976Y-77964285D01*
X147106547Y-77964285D02*
X147106547Y-77214285D01*
X147170357Y-77321428D01*
X147234166Y-77392857D01*
X147297976Y-77428571D01*
X146340833Y-77214285D02*
X146468452Y-77214285D01*
X146532261Y-77250000D01*
X146564166Y-77285714D01*
X146627976Y-77392857D01*
X146659880Y-77535714D01*
X146659880Y-77821428D01*
X146627976Y-77892857D01*
X146596071Y-77928571D01*
X146532261Y-77964285D01*
X146404642Y-77964285D01*
X146340833Y-77928571D01*
X146308928Y-77892857D01*
X146277023Y-77821428D01*
X146277023Y-77642857D01*
X146308928Y-77571428D01*
X146340833Y-77535714D01*
X146404642Y-77500000D01*
X146532261Y-77500000D01*
X146596071Y-77535714D01*
X146627976Y-77571428D01*
X146659880Y-77642857D01*
X145511309Y-77178571D02*
X146085595Y-78142857D01*
X145064642Y-77571428D02*
X144968928Y-77607142D01*
X144937023Y-77642857D01*
X144905119Y-77714285D01*
X144905119Y-77821428D01*
X144937023Y-77892857D01*
X144968928Y-77928571D01*
X145032738Y-77964285D01*
X145287976Y-77964285D01*
X145287976Y-77214285D01*
X145064642Y-77214285D01*
X145000833Y-77250000D01*
X144968928Y-77285714D01*
X144937023Y-77357142D01*
X144937023Y-77428571D01*
X144968928Y-77500000D01*
X145000833Y-77535714D01*
X145064642Y-77571428D01*
X145287976Y-77571428D01*
X144649880Y-77285714D02*
X144617976Y-77250000D01*
X144554166Y-77214285D01*
X144394642Y-77214285D01*
X144330833Y-77250000D01*
X144298928Y-77285714D01*
X144267023Y-77357142D01*
X144267023Y-77428571D01*
X144298928Y-77535714D01*
X144681785Y-77964285D01*
X144267023Y-77964285D01*
X146915119Y-80464285D02*
X147297976Y-80464285D01*
X147106547Y-80464285D02*
X147106547Y-79714285D01*
X147170357Y-79821428D01*
X147234166Y-79892857D01*
X147297976Y-79928571D01*
X146500357Y-79714285D02*
X146436547Y-79714285D01*
X146372738Y-79750000D01*
X146340833Y-79785714D01*
X146308928Y-79857142D01*
X146277023Y-80000000D01*
X146277023Y-80178571D01*
X146308928Y-80321428D01*
X146340833Y-80392857D01*
X146372738Y-80428571D01*
X146436547Y-80464285D01*
X146500357Y-80464285D01*
X146564166Y-80428571D01*
X146596071Y-80392857D01*
X146627976Y-80321428D01*
X146659880Y-80178571D01*
X146659880Y-80000000D01*
X146627976Y-79857142D01*
X146596071Y-79785714D01*
X146564166Y-79750000D01*
X146500357Y-79714285D01*
X145511309Y-79678571D02*
X146085595Y-80642857D01*
X145064642Y-80071428D02*
X144968928Y-80107142D01*
X144937023Y-80142857D01*
X144905119Y-80214285D01*
X144905119Y-80321428D01*
X144937023Y-80392857D01*
X144968928Y-80428571D01*
X145032738Y-80464285D01*
X145287976Y-80464285D01*
X145287976Y-79714285D01*
X145064642Y-79714285D01*
X145000833Y-79750000D01*
X144968928Y-79785714D01*
X144937023Y-79857142D01*
X144937023Y-79928571D01*
X144968928Y-80000000D01*
X145000833Y-80035714D01*
X145064642Y-80071428D01*
X145287976Y-80071428D01*
X144330833Y-79714285D02*
X144458452Y-79714285D01*
X144522261Y-79750000D01*
X144554166Y-79785714D01*
X144617976Y-79892857D01*
X144649880Y-80035714D01*
X144649880Y-80321428D01*
X144617976Y-80392857D01*
X144586071Y-80428571D01*
X144522261Y-80464285D01*
X144394642Y-80464285D01*
X144330833Y-80428571D01*
X144298928Y-80392857D01*
X144267023Y-80321428D01*
X144267023Y-80142857D01*
X144298928Y-80071428D01*
X144330833Y-80035714D01*
X144394642Y-80000000D01*
X144522261Y-80000000D01*
X144586071Y-80035714D01*
X144617976Y-80071428D01*
X144649880Y-80142857D01*
X146915119Y-75414285D02*
X147297976Y-75414285D01*
X147106547Y-75414285D02*
X147106547Y-74664285D01*
X147170357Y-74771428D01*
X147234166Y-74842857D01*
X147297976Y-74878571D01*
X146340833Y-74914285D02*
X146340833Y-75414285D01*
X146500357Y-74628571D02*
X146659880Y-75164285D01*
X146245119Y-75164285D01*
X145511309Y-74628571D02*
X146085595Y-75592857D01*
X145064642Y-75021428D02*
X144968928Y-75057142D01*
X144937023Y-75092857D01*
X144905119Y-75164285D01*
X144905119Y-75271428D01*
X144937023Y-75342857D01*
X144968928Y-75378571D01*
X145032738Y-75414285D01*
X145287976Y-75414285D01*
X145287976Y-74664285D01*
X145064642Y-74664285D01*
X145000833Y-74700000D01*
X144968928Y-74735714D01*
X144937023Y-74807142D01*
X144937023Y-74878571D01*
X144968928Y-74950000D01*
X145000833Y-74985714D01*
X145064642Y-75021428D01*
X145287976Y-75021428D01*
X144681785Y-74664285D02*
X144267023Y-74664285D01*
X144490357Y-74950000D01*
X144394642Y-74950000D01*
X144330833Y-74985714D01*
X144298928Y-75021428D01*
X144267023Y-75092857D01*
X144267023Y-75271428D01*
X144298928Y-75342857D01*
X144330833Y-75378571D01*
X144394642Y-75414285D01*
X144586071Y-75414285D01*
X144649880Y-75378571D01*
X144681785Y-75342857D01*
X146915119Y-72864285D02*
X147297976Y-72864285D01*
X147106547Y-72864285D02*
X147106547Y-72114285D01*
X147170357Y-72221428D01*
X147234166Y-72292857D01*
X147297976Y-72328571D01*
X146308928Y-72114285D02*
X146627976Y-72114285D01*
X146659880Y-72471428D01*
X146627976Y-72435714D01*
X146564166Y-72400000D01*
X146404642Y-72400000D01*
X146340833Y-72435714D01*
X146308928Y-72471428D01*
X146277023Y-72542857D01*
X146277023Y-72721428D01*
X146308928Y-72792857D01*
X146340833Y-72828571D01*
X146404642Y-72864285D01*
X146564166Y-72864285D01*
X146627976Y-72828571D01*
X146659880Y-72792857D01*
X145511309Y-72078571D02*
X146085595Y-73042857D01*
X145064642Y-72471428D02*
X144968928Y-72507142D01*
X144937023Y-72542857D01*
X144905119Y-72614285D01*
X144905119Y-72721428D01*
X144937023Y-72792857D01*
X144968928Y-72828571D01*
X145032738Y-72864285D01*
X145287976Y-72864285D01*
X145287976Y-72114285D01*
X145064642Y-72114285D01*
X145000833Y-72150000D01*
X144968928Y-72185714D01*
X144937023Y-72257142D01*
X144937023Y-72328571D01*
X144968928Y-72400000D01*
X145000833Y-72435714D01*
X145064642Y-72471428D01*
X145287976Y-72471428D01*
X144267023Y-72864285D02*
X144649880Y-72864285D01*
X144458452Y-72864285D02*
X144458452Y-72114285D01*
X144522261Y-72221428D01*
X144586071Y-72292857D01*
X144649880Y-72328571D01*
X147218214Y-70100000D02*
X146899166Y-70100000D01*
X147282023Y-70314285D02*
X147058690Y-69564285D01*
X146835357Y-70314285D01*
X146484404Y-69564285D02*
X146420595Y-69564285D01*
X146356785Y-69600000D01*
X146324880Y-69635714D01*
X146292976Y-69707142D01*
X146261071Y-69850000D01*
X146261071Y-70028571D01*
X146292976Y-70171428D01*
X146324880Y-70242857D01*
X146356785Y-70278571D01*
X146420595Y-70314285D01*
X146484404Y-70314285D01*
X146548214Y-70278571D01*
X146580119Y-70242857D01*
X146612023Y-70171428D01*
X146643928Y-70028571D01*
X146643928Y-69850000D01*
X146612023Y-69707142D01*
X146580119Y-69635714D01*
X146548214Y-69600000D01*
X146484404Y-69564285D01*
X145495357Y-69528571D02*
X146069642Y-70492857D01*
X145048690Y-69921428D02*
X145272023Y-69921428D01*
X145272023Y-70314285D02*
X145272023Y-69564285D01*
X144952976Y-69564285D01*
X144761547Y-69564285D02*
X144314880Y-69564285D01*
X144602023Y-70314285D01*
X147218214Y-67550000D02*
X146899166Y-67550000D01*
X147282023Y-67764285D02*
X147058690Y-67014285D01*
X146835357Y-67764285D01*
X146261071Y-67764285D02*
X146643928Y-67764285D01*
X146452500Y-67764285D02*
X146452500Y-67014285D01*
X146516309Y-67121428D01*
X146580119Y-67192857D01*
X146643928Y-67228571D01*
X145495357Y-66978571D02*
X146069642Y-67942857D01*
X145048690Y-67371428D02*
X145272023Y-67371428D01*
X145272023Y-67764285D02*
X145272023Y-67014285D01*
X144952976Y-67014285D01*
X144410595Y-67014285D02*
X144538214Y-67014285D01*
X144602023Y-67050000D01*
X144633928Y-67085714D01*
X144697738Y-67192857D01*
X144729642Y-67335714D01*
X144729642Y-67621428D01*
X144697738Y-67692857D01*
X144665833Y-67728571D01*
X144602023Y-67764285D01*
X144474404Y-67764285D01*
X144410595Y-67728571D01*
X144378690Y-67692857D01*
X144346785Y-67621428D01*
X144346785Y-67442857D01*
X144378690Y-67371428D01*
X144410595Y-67335714D01*
X144474404Y-67300000D01*
X144602023Y-67300000D01*
X144665833Y-67335714D01*
X144697738Y-67371428D01*
X144729642Y-67442857D01*
X147218214Y-65050000D02*
X146899166Y-65050000D01*
X147282023Y-65264285D02*
X147058690Y-64514285D01*
X146835357Y-65264285D01*
X146643928Y-64585714D02*
X146612023Y-64550000D01*
X146548214Y-64514285D01*
X146388690Y-64514285D01*
X146324880Y-64550000D01*
X146292976Y-64585714D01*
X146261071Y-64657142D01*
X146261071Y-64728571D01*
X146292976Y-64835714D01*
X146675833Y-65264285D01*
X146261071Y-65264285D01*
X145495357Y-64478571D02*
X146069642Y-65442857D01*
X145048690Y-64871428D02*
X145272023Y-64871428D01*
X145272023Y-65264285D02*
X145272023Y-64514285D01*
X144952976Y-64514285D01*
X144378690Y-64514285D02*
X144697738Y-64514285D01*
X144729642Y-64871428D01*
X144697738Y-64835714D01*
X144633928Y-64800000D01*
X144474404Y-64800000D01*
X144410595Y-64835714D01*
X144378690Y-64871428D01*
X144346785Y-64942857D01*
X144346785Y-65121428D01*
X144378690Y-65192857D01*
X144410595Y-65228571D01*
X144474404Y-65264285D01*
X144633928Y-65264285D01*
X144697738Y-65228571D01*
X144729642Y-65192857D01*
X147218214Y-62550000D02*
X146899166Y-62550000D01*
X147282023Y-62764285D02*
X147058690Y-62014285D01*
X146835357Y-62764285D01*
X146675833Y-62014285D02*
X146261071Y-62014285D01*
X146484404Y-62300000D01*
X146388690Y-62300000D01*
X146324880Y-62335714D01*
X146292976Y-62371428D01*
X146261071Y-62442857D01*
X146261071Y-62621428D01*
X146292976Y-62692857D01*
X146324880Y-62728571D01*
X146388690Y-62764285D01*
X146580119Y-62764285D01*
X146643928Y-62728571D01*
X146675833Y-62692857D01*
X145495357Y-61978571D02*
X146069642Y-62942857D01*
X145048690Y-62371428D02*
X145272023Y-62371428D01*
X145272023Y-62764285D02*
X145272023Y-62014285D01*
X144952976Y-62014285D01*
X144410595Y-62264285D02*
X144410595Y-62764285D01*
X144570119Y-61978571D02*
X144729642Y-62514285D01*
X144314880Y-62514285D01*
X146025833Y-59314285D02*
X145802500Y-60064285D01*
X145579166Y-59314285D01*
X144972976Y-59992857D02*
X145004880Y-60028571D01*
X145100595Y-60064285D01*
X145164404Y-60064285D01*
X145260119Y-60028571D01*
X145323928Y-59957142D01*
X145355833Y-59885714D01*
X145387738Y-59742857D01*
X145387738Y-59635714D01*
X145355833Y-59492857D01*
X145323928Y-59421428D01*
X145260119Y-59350000D01*
X145164404Y-59314285D01*
X145100595Y-59314285D01*
X145004880Y-59350000D01*
X144972976Y-59385714D01*
X144302976Y-59992857D02*
X144334880Y-60028571D01*
X144430595Y-60064285D01*
X144494404Y-60064285D01*
X144590119Y-60028571D01*
X144653928Y-59957142D01*
X144685833Y-59885714D01*
X144717738Y-59742857D01*
X144717738Y-59635714D01*
X144685833Y-59492857D01*
X144653928Y-59421428D01*
X144590119Y-59350000D01*
X144494404Y-59314285D01*
X144430595Y-59314285D01*
X144334880Y-59350000D01*
X144302976Y-59385714D01*
X145499404Y-57614285D02*
X145722738Y-57257142D01*
X145882261Y-57614285D02*
X145882261Y-56864285D01*
X145627023Y-56864285D01*
X145563214Y-56900000D01*
X145531309Y-56935714D01*
X145499404Y-57007142D01*
X145499404Y-57114285D01*
X145531309Y-57185714D01*
X145563214Y-57221428D01*
X145627023Y-57257142D01*
X145882261Y-57257142D01*
X145244166Y-57578571D02*
X145148452Y-57614285D01*
X144988928Y-57614285D01*
X144925119Y-57578571D01*
X144893214Y-57542857D01*
X144861309Y-57471428D01*
X144861309Y-57400000D01*
X144893214Y-57328571D01*
X144925119Y-57292857D01*
X144988928Y-57257142D01*
X145116547Y-57221428D01*
X145180357Y-57185714D01*
X145212261Y-57150000D01*
X145244166Y-57078571D01*
X145244166Y-57007142D01*
X145212261Y-56935714D01*
X145180357Y-56900000D01*
X145116547Y-56864285D01*
X144957023Y-56864285D01*
X144861309Y-56900000D01*
X144669880Y-56864285D02*
X144287023Y-56864285D01*
X144478452Y-57614285D02*
X144478452Y-56864285D01*
X145642976Y-54350000D02*
X145706785Y-54314285D01*
X145802500Y-54314285D01*
X145898214Y-54350000D01*
X145962023Y-54421428D01*
X145993928Y-54492857D01*
X146025833Y-54635714D01*
X146025833Y-54742857D01*
X145993928Y-54885714D01*
X145962023Y-54957142D01*
X145898214Y-55028571D01*
X145802500Y-55064285D01*
X145738690Y-55064285D01*
X145642976Y-55028571D01*
X145611071Y-54992857D01*
X145611071Y-54742857D01*
X145738690Y-54742857D01*
X145323928Y-55064285D02*
X145323928Y-54314285D01*
X144941071Y-55064285D01*
X144941071Y-54314285D01*
X144622023Y-55064285D02*
X144622023Y-54314285D01*
X144462500Y-54314285D01*
X144366785Y-54350000D01*
X144302976Y-54421428D01*
X144271071Y-54492857D01*
X144239166Y-54635714D01*
X144239166Y-54742857D01*
X144271071Y-54885714D01*
X144302976Y-54957142D01*
X144366785Y-55028571D01*
X144462500Y-55064285D01*
X144622023Y-55064285D01*
X145595119Y-52514285D02*
X145818452Y-52157142D01*
X145977976Y-52514285D02*
X145977976Y-51764285D01*
X145722738Y-51764285D01*
X145658928Y-51800000D01*
X145627023Y-51835714D01*
X145595119Y-51907142D01*
X145595119Y-52014285D01*
X145627023Y-52085714D01*
X145658928Y-52121428D01*
X145722738Y-52157142D01*
X145977976Y-52157142D01*
X145339880Y-52300000D02*
X145020833Y-52300000D01*
X145403690Y-52514285D02*
X145180357Y-51764285D01*
X144957023Y-52514285D01*
X144797500Y-51764285D02*
X144637976Y-52514285D01*
X144510357Y-51978571D01*
X144382738Y-52514285D01*
X144223214Y-51764285D01*
%LPC*%
G36*
G01*
X130245726Y-127615793D02*
X131583988Y-126129503D01*
G75*
G02*
X133278719Y-126040686I891774J-802957D01*
G01*
X133278719Y-126040686D01*
G75*
G02*
X133367536Y-127735417I-802957J-891774D01*
G01*
X132029274Y-129221707D01*
G75*
G02*
X130334543Y-129310524I-891774J802957D01*
G01*
X130334543Y-129310524D01*
G75*
G02*
X130245726Y-127615793I802957J891774D01*
G01*
G37*
D13*
X137437500Y-126168750D03*
D14*
X132437500Y-126968750D03*
G36*
G01*
X136637626Y-125447547D02*
X136637626Y-125447547D01*
G75*
G02*
X137381052Y-124691031I749971J6545D01*
G01*
X140280942Y-124665725D01*
G75*
G02*
X141037458Y-125409151I6545J-749971D01*
G01*
X141037458Y-125409151D01*
G75*
G02*
X140294032Y-126165667I-749971J-6545D01*
G01*
X137394142Y-126190973D01*
G75*
G02*
X136637626Y-125447547I-6545J749971D01*
G01*
G37*
D15*
X129837500Y-134868750D03*
D16*
X134937500Y-136868750D03*
X134937500Y-117818750D03*
D15*
X129837500Y-115818750D03*
G36*
G01*
X136637626Y-106397547D02*
X136637626Y-106397547D01*
G75*
G02*
X137381052Y-105641031I749971J6545D01*
G01*
X140280942Y-105615725D01*
G75*
G02*
X141037458Y-106359151I6545J-749971D01*
G01*
X141037458Y-106359151D01*
G75*
G02*
X140294032Y-107115667I-749971J-6545D01*
G01*
X137394142Y-107140973D01*
G75*
G02*
X136637626Y-106397547I-6545J749971D01*
G01*
G37*
D14*
X132437500Y-107918750D03*
D13*
X137437500Y-107118750D03*
G36*
G01*
X130245726Y-108565793D02*
X131583988Y-107079503D01*
G75*
G02*
X133278719Y-106990686I891774J-802957D01*
G01*
X133278719Y-106990686D01*
G75*
G02*
X133367536Y-108685417I-802957J-891774D01*
G01*
X132029274Y-110171707D01*
G75*
G02*
X130334543Y-110260524I-891774J802957D01*
G01*
X130334543Y-110260524D01*
G75*
G02*
X130245726Y-108565793I802957J891774D01*
G01*
G37*
G36*
G01*
X111195726Y-108565793D02*
X112533988Y-107079503D01*
G75*
G02*
X114228719Y-106990686I891774J-802957D01*
G01*
X114228719Y-106990686D01*
G75*
G02*
X114317536Y-108685417I-802957J-891774D01*
G01*
X112979274Y-110171707D01*
G75*
G02*
X111284543Y-110260524I-891774J802957D01*
G01*
X111284543Y-110260524D01*
G75*
G02*
X111195726Y-108565793I802957J891774D01*
G01*
G37*
X118387500Y-107118750D03*
D14*
X113387500Y-107918750D03*
G36*
G01*
X117587626Y-106397547D02*
X117587626Y-106397547D01*
G75*
G02*
X118331052Y-105641031I749971J6545D01*
G01*
X121230942Y-105615725D01*
G75*
G02*
X121987458Y-106359151I6545J-749971D01*
G01*
X121987458Y-106359151D01*
G75*
G02*
X121244032Y-107115667I-749971J-6545D01*
G01*
X118344142Y-107140973D01*
G75*
G02*
X117587626Y-106397547I-6545J749971D01*
G01*
G37*
D15*
X110787500Y-115818750D03*
D16*
X115887500Y-117818750D03*
X96837500Y-117818750D03*
D15*
X91737500Y-115818750D03*
G36*
G01*
X98537626Y-106397547D02*
X98537626Y-106397547D01*
G75*
G02*
X99281052Y-105641031I749971J6545D01*
G01*
X102180942Y-105615725D01*
G75*
G02*
X102937458Y-106359151I6545J-749971D01*
G01*
X102937458Y-106359151D01*
G75*
G02*
X102194032Y-107115667I-749971J-6545D01*
G01*
X99294142Y-107140973D01*
G75*
G02*
X98537626Y-106397547I-6545J749971D01*
G01*
G37*
D14*
X94337500Y-107918750D03*
D13*
X99337500Y-107118750D03*
G36*
G01*
X92145726Y-108565793D02*
X93483988Y-107079503D01*
G75*
G02*
X95178719Y-106990686I891774J-802957D01*
G01*
X95178719Y-106990686D01*
G75*
G02*
X95267536Y-108685417I-802957J-891774D01*
G01*
X93929274Y-110171707D01*
G75*
G02*
X92234543Y-110260524I-891774J802957D01*
G01*
X92234543Y-110260524D01*
G75*
G02*
X92145726Y-108565793I802957J891774D01*
G01*
G37*
G36*
G01*
X130245726Y-89515793D02*
X131583988Y-88029503D01*
G75*
G02*
X133278719Y-87940686I891774J-802957D01*
G01*
X133278719Y-87940686D01*
G75*
G02*
X133367536Y-89635417I-802957J-891774D01*
G01*
X132029274Y-91121707D01*
G75*
G02*
X130334543Y-91210524I-891774J802957D01*
G01*
X130334543Y-91210524D01*
G75*
G02*
X130245726Y-89515793I802957J891774D01*
G01*
G37*
X137437500Y-88068750D03*
D14*
X132437500Y-88868750D03*
G36*
G01*
X136637626Y-87347547D02*
X136637626Y-87347547D01*
G75*
G02*
X137381052Y-86591031I749971J6545D01*
G01*
X140280942Y-86565725D01*
G75*
G02*
X141037458Y-87309151I6545J-749971D01*
G01*
X141037458Y-87309151D01*
G75*
G02*
X140294032Y-88065667I-749971J-6545D01*
G01*
X137394142Y-88090973D01*
G75*
G02*
X136637626Y-87347547I-6545J749971D01*
G01*
G37*
D15*
X129837500Y-96768750D03*
D16*
X134937500Y-98768750D03*
X115887500Y-98768750D03*
D15*
X110787500Y-96768750D03*
G36*
G01*
X117587626Y-87347547D02*
X117587626Y-87347547D01*
G75*
G02*
X118331052Y-86591031I749971J6545D01*
G01*
X121230942Y-86565725D01*
G75*
G02*
X121987458Y-87309151I6545J-749971D01*
G01*
X121987458Y-87309151D01*
G75*
G02*
X121244032Y-88065667I-749971J-6545D01*
G01*
X118344142Y-88090973D01*
G75*
G02*
X117587626Y-87347547I-6545J749971D01*
G01*
G37*
D14*
X113387500Y-88868750D03*
D13*
X118387500Y-88068750D03*
G36*
G01*
X111195726Y-89515793D02*
X112533988Y-88029503D01*
G75*
G02*
X114228719Y-87940686I891774J-802957D01*
G01*
X114228719Y-87940686D01*
G75*
G02*
X114317536Y-89635417I-802957J-891774D01*
G01*
X112979274Y-91121707D01*
G75*
G02*
X111284543Y-91210524I-891774J802957D01*
G01*
X111284543Y-91210524D01*
G75*
G02*
X111195726Y-89515793I802957J891774D01*
G01*
G37*
G36*
G01*
X92152477Y-89515793D02*
X93490739Y-88029503D01*
G75*
G02*
X95185470Y-87940686I891774J-802957D01*
G01*
X95185470Y-87940686D01*
G75*
G02*
X95274287Y-89635417I-802957J-891774D01*
G01*
X93936025Y-91121707D01*
G75*
G02*
X92241294Y-91210524I-891774J802957D01*
G01*
X92241294Y-91210524D01*
G75*
G02*
X92152477Y-89515793I802957J891774D01*
G01*
G37*
X99344251Y-88068750D03*
D14*
X94344251Y-88868750D03*
G36*
G01*
X98544377Y-87347547D02*
X98544377Y-87347547D01*
G75*
G02*
X99287803Y-86591031I749971J6545D01*
G01*
X102187693Y-86565725D01*
G75*
G02*
X102944209Y-87309151I6545J-749971D01*
G01*
X102944209Y-87309151D01*
G75*
G02*
X102200783Y-88065667I-749971J-6545D01*
G01*
X99300893Y-88090973D01*
G75*
G02*
X98544377Y-87347547I-6545J749971D01*
G01*
G37*
D15*
X91744251Y-96768750D03*
D16*
X96844251Y-98768750D03*
G36*
G01*
X130245726Y-70465793D02*
X131583988Y-68979503D01*
G75*
G02*
X133278719Y-68890686I891774J-802957D01*
G01*
X133278719Y-68890686D01*
G75*
G02*
X133367536Y-70585417I-802957J-891774D01*
G01*
X132029274Y-72071707D01*
G75*
G02*
X130334543Y-72160524I-891774J802957D01*
G01*
X130334543Y-72160524D01*
G75*
G02*
X130245726Y-70465793I802957J891774D01*
G01*
G37*
D13*
X137437500Y-69018750D03*
D14*
X132437500Y-69818750D03*
G36*
G01*
X136637626Y-68297547D02*
X136637626Y-68297547D01*
G75*
G02*
X137381052Y-67541031I749971J6545D01*
G01*
X140280942Y-67515725D01*
G75*
G02*
X141037458Y-68259151I6545J-749971D01*
G01*
X141037458Y-68259151D01*
G75*
G02*
X140294032Y-69015667I-749971J-6545D01*
G01*
X137394142Y-69040973D01*
G75*
G02*
X136637626Y-68297547I-6545J749971D01*
G01*
G37*
D15*
X129837500Y-77718750D03*
D16*
X134937500Y-79718750D03*
X115887500Y-79718750D03*
D15*
X110787500Y-77718750D03*
G36*
G01*
X117587626Y-68297547D02*
X117587626Y-68297547D01*
G75*
G02*
X118331052Y-67541031I749971J6545D01*
G01*
X121230942Y-67515725D01*
G75*
G02*
X121987458Y-68259151I6545J-749971D01*
G01*
X121987458Y-68259151D01*
G75*
G02*
X121244032Y-69015667I-749971J-6545D01*
G01*
X118344142Y-69040973D01*
G75*
G02*
X117587626Y-68297547I-6545J749971D01*
G01*
G37*
D14*
X113387500Y-69818750D03*
D13*
X118387500Y-69018750D03*
G36*
G01*
X111195726Y-70465793D02*
X112533988Y-68979503D01*
G75*
G02*
X114228719Y-68890686I891774J-802957D01*
G01*
X114228719Y-68890686D01*
G75*
G02*
X114317536Y-70585417I-802957J-891774D01*
G01*
X112979274Y-72071707D01*
G75*
G02*
X111284543Y-72160524I-891774J802957D01*
G01*
X111284543Y-72160524D01*
G75*
G02*
X111195726Y-70465793I802957J891774D01*
G01*
G37*
G36*
G01*
X92145726Y-70465793D02*
X93483988Y-68979503D01*
G75*
G02*
X95178719Y-68890686I891774J-802957D01*
G01*
X95178719Y-68890686D01*
G75*
G02*
X95267536Y-70585417I-802957J-891774D01*
G01*
X93929274Y-72071707D01*
G75*
G02*
X92234543Y-72160524I-891774J802957D01*
G01*
X92234543Y-72160524D01*
G75*
G02*
X92145726Y-70465793I802957J891774D01*
G01*
G37*
X99337500Y-69018750D03*
D14*
X94337500Y-69818750D03*
G36*
G01*
X98537626Y-68297547D02*
X98537626Y-68297547D01*
G75*
G02*
X99281052Y-67541031I749971J6545D01*
G01*
X102180942Y-67515725D01*
G75*
G02*
X102937458Y-68259151I6545J-749971D01*
G01*
X102937458Y-68259151D01*
G75*
G02*
X102194032Y-69015667I-749971J-6545D01*
G01*
X99294142Y-69040973D01*
G75*
G02*
X98537626Y-68297547I-6545J749971D01*
G01*
G37*
D15*
X91737500Y-77718750D03*
D16*
X96837500Y-79718750D03*
X153987500Y-60668750D03*
D15*
X148887500Y-58668750D03*
G36*
G01*
X155687626Y-49247547D02*
X155687626Y-49247547D01*
G75*
G02*
X156431052Y-48491031I749971J6545D01*
G01*
X159330942Y-48465725D01*
G75*
G02*
X160087458Y-49209151I6545J-749971D01*
G01*
X160087458Y-49209151D01*
G75*
G02*
X159344032Y-49965667I-749971J-6545D01*
G01*
X156444142Y-49990973D01*
G75*
G02*
X155687626Y-49247547I-6545J749971D01*
G01*
G37*
D14*
X151487500Y-50768750D03*
D13*
X156487500Y-49968750D03*
G36*
G01*
X149295726Y-51415793D02*
X150633988Y-49929503D01*
G75*
G02*
X152328719Y-49840686I891774J-802957D01*
G01*
X152328719Y-49840686D01*
G75*
G02*
X152417536Y-51535417I-802957J-891774D01*
G01*
X151079274Y-53021707D01*
G75*
G02*
X149384543Y-53110524I-891774J802957D01*
G01*
X149384543Y-53110524D01*
G75*
G02*
X149295726Y-51415793I802957J891774D01*
G01*
G37*
G36*
G01*
X130245726Y-51415793D02*
X131583988Y-49929503D01*
G75*
G02*
X133278719Y-49840686I891774J-802957D01*
G01*
X133278719Y-49840686D01*
G75*
G02*
X133367536Y-51535417I-802957J-891774D01*
G01*
X132029274Y-53021707D01*
G75*
G02*
X130334543Y-53110524I-891774J802957D01*
G01*
X130334543Y-53110524D01*
G75*
G02*
X130245726Y-51415793I802957J891774D01*
G01*
G37*
X137437500Y-49968750D03*
D14*
X132437500Y-50768750D03*
G36*
G01*
X136637626Y-49247547D02*
X136637626Y-49247547D01*
G75*
G02*
X137381052Y-48491031I749971J6545D01*
G01*
X140280942Y-48465725D01*
G75*
G02*
X141037458Y-49209151I6545J-749971D01*
G01*
X141037458Y-49209151D01*
G75*
G02*
X140294032Y-49965667I-749971J-6545D01*
G01*
X137394142Y-49990973D01*
G75*
G02*
X136637626Y-49247547I-6545J749971D01*
G01*
G37*
D15*
X129837500Y-58668750D03*
D16*
X134937500Y-60668750D03*
X115887500Y-60668750D03*
D15*
X110787500Y-58668750D03*
G36*
G01*
X117587626Y-49247547D02*
X117587626Y-49247547D01*
G75*
G02*
X118331052Y-48491031I749971J6545D01*
G01*
X121230942Y-48465725D01*
G75*
G02*
X121987458Y-49209151I6545J-749971D01*
G01*
X121987458Y-49209151D01*
G75*
G02*
X121244032Y-49965667I-749971J-6545D01*
G01*
X118344142Y-49990973D01*
G75*
G02*
X117587626Y-49247547I-6545J749971D01*
G01*
G37*
D14*
X113387500Y-50768750D03*
D13*
X118387500Y-49968750D03*
G36*
G01*
X111195726Y-51415793D02*
X112533988Y-49929503D01*
G75*
G02*
X114228719Y-49840686I891774J-802957D01*
G01*
X114228719Y-49840686D01*
G75*
G02*
X114317536Y-51535417I-802957J-891774D01*
G01*
X112979274Y-53021707D01*
G75*
G02*
X111284543Y-53110524I-891774J802957D01*
G01*
X111284543Y-53110524D01*
G75*
G02*
X111195726Y-51415793I802957J891774D01*
G01*
G37*
G36*
G01*
X92145726Y-51415793D02*
X93483988Y-49929503D01*
G75*
G02*
X95178719Y-49840686I891774J-802957D01*
G01*
X95178719Y-49840686D01*
G75*
G02*
X95267536Y-51535417I-802957J-891774D01*
G01*
X93929274Y-53021707D01*
G75*
G02*
X92234543Y-53110524I-891774J802957D01*
G01*
X92234543Y-53110524D01*
G75*
G02*
X92145726Y-51415793I802957J891774D01*
G01*
G37*
X99337500Y-49968750D03*
D14*
X94337500Y-50768750D03*
G36*
G01*
X98537626Y-49247547D02*
X98537626Y-49247547D01*
G75*
G02*
X99281052Y-48491031I749971J6545D01*
G01*
X102180942Y-48465725D01*
G75*
G02*
X102937458Y-49209151I6545J-749971D01*
G01*
X102937458Y-49209151D01*
G75*
G02*
X102194032Y-49965667I-749971J-6545D01*
G01*
X99294142Y-49990973D01*
G75*
G02*
X98537626Y-49247547I-6545J749971D01*
G01*
G37*
D15*
X91737500Y-58668750D03*
D16*
X96837500Y-60668750D03*
G36*
G01*
X150634543Y-88035524D02*
X149148253Y-86697262D01*
G75*
G02*
X149059436Y-85002531I802957J891774D01*
G01*
X149059436Y-85002531D01*
G75*
G02*
X150754167Y-84913714I891774J-802957D01*
G01*
X152240457Y-86251976D01*
G75*
G02*
X152329274Y-87946707I-802957J-891774D01*
G01*
X152329274Y-87946707D01*
G75*
G02*
X150634543Y-88035524I-891774J802957D01*
G01*
G37*
D17*
X149187500Y-80843750D03*
D14*
X149987500Y-85843750D03*
G36*
G01*
X148466297Y-81643624D02*
X148466297Y-81643624D01*
G75*
G02*
X147709781Y-80900198I-6545J749971D01*
G01*
X147684475Y-78000308D01*
G75*
G02*
X148427901Y-77243792I749971J6545D01*
G01*
X148427901Y-77243792D01*
G75*
G02*
X149184417Y-77987218I6545J-749971D01*
G01*
X149209723Y-80887108D01*
G75*
G02*
X148466297Y-81643624I-749971J-6545D01*
G01*
G37*
D18*
X157887500Y-88443750D03*
D19*
X159887500Y-83343750D03*
G36*
G01*
X150634543Y-126135524D02*
X149148253Y-124797262D01*
G75*
G02*
X149059436Y-123102531I802957J891774D01*
G01*
X149059436Y-123102531D01*
G75*
G02*
X150754167Y-123013714I891774J-802957D01*
G01*
X152240457Y-124351976D01*
G75*
G02*
X152329274Y-126046707I-802957J-891774D01*
G01*
X152329274Y-126046707D01*
G75*
G02*
X150634543Y-126135524I-891774J802957D01*
G01*
G37*
D17*
X149187500Y-118943750D03*
D14*
X149987500Y-123943750D03*
G36*
G01*
X148466297Y-119743624D02*
X148466297Y-119743624D01*
G75*
G02*
X147709781Y-119000198I-6545J749971D01*
G01*
X147684475Y-116100308D01*
G75*
G02*
X148427901Y-115343792I749971J6545D01*
G01*
X148427901Y-115343792D01*
G75*
G02*
X149184417Y-116087218I6545J-749971D01*
G01*
X149209723Y-118987108D01*
G75*
G02*
X148466297Y-119743624I-749971J-6545D01*
G01*
G37*
D18*
X157887500Y-126543750D03*
D19*
X159887500Y-121443750D03*
G36*
G01*
X101670726Y-127615793D02*
X103008988Y-126129503D01*
G75*
G02*
X104703719Y-126040686I891774J-802957D01*
G01*
X104703719Y-126040686D01*
G75*
G02*
X104792536Y-127735417I-802957J-891774D01*
G01*
X103454274Y-129221707D01*
G75*
G02*
X101759543Y-129310524I-891774J802957D01*
G01*
X101759543Y-129310524D01*
G75*
G02*
X101670726Y-127615793I802957J891774D01*
G01*
G37*
D13*
X108862500Y-126168750D03*
D14*
X103862500Y-126968750D03*
G36*
G01*
X108062626Y-125447547D02*
X108062626Y-125447547D01*
G75*
G02*
X108806052Y-124691031I749971J6545D01*
G01*
X111705942Y-124665725D01*
G75*
G02*
X112462458Y-125409151I6545J-749971D01*
G01*
X112462458Y-125409151D01*
G75*
G02*
X111719032Y-126165667I-749971J-6545D01*
G01*
X108819142Y-126190973D01*
G75*
G02*
X108062626Y-125447547I-6545J749971D01*
G01*
G37*
D15*
X101262500Y-134868750D03*
D16*
X106362500Y-136868750D03*
M02*
