M48
; DRILL file {KiCad (5.1.10)-1} date 05/19/21 19:05:53
; FORMAT={-:-/ absolute / metric / decimal}
; #@! TF.CreationDate,2021-05-19T19:05:53-07:00
; #@! TF.GenerationSoftware,Kicad,Pcbnew,(5.1.10)-1
; #@! TF.FileFunction,NonPlated,1,2,NPTH
FMAT,2
METRIC
T1C1.700
T2C1.800
T3C4.900
%
G90
G05
T1
X91.757Y-54.769
X91.757Y-73.819
X91.757Y-111.919
X91.764Y-92.869
X101.282Y-130.969
X101.917Y-54.769
X101.917Y-73.819
X101.917Y-111.919
X101.924Y-92.869
X110.807Y-54.769
X110.807Y-73.819
X110.807Y-92.869
X110.807Y-111.919
X111.442Y-130.969
X120.968Y-54.769
X120.968Y-73.819
X120.968Y-92.869
X120.968Y-111.919
X129.857Y-54.769
X129.857Y-73.819
X129.857Y-92.869
X129.857Y-111.919
X129.857Y-130.969
X140.017Y-54.769
X140.017Y-73.819
X140.017Y-92.869
X140.017Y-111.919
X140.017Y-130.969
X148.907Y-54.769
X153.987Y-78.264
X153.987Y-88.424
X153.987Y-116.364
X153.987Y-126.524
X159.067Y-54.769
T2
X91.337Y-54.769
X91.337Y-73.819
X91.337Y-111.919
X91.344Y-92.869
X100.862Y-130.969
X102.337Y-54.769
X102.337Y-73.819
X102.337Y-111.919
X102.344Y-92.869
X110.387Y-54.769
X110.387Y-73.819
X110.387Y-92.869
X110.387Y-111.919
X111.862Y-130.969
X121.387Y-54.769
X121.387Y-73.819
X121.387Y-92.869
X121.387Y-111.919
X129.438Y-54.769
X129.438Y-73.819
X129.438Y-92.869
X129.438Y-111.919
X129.438Y-130.969
X140.438Y-54.769
X140.438Y-73.819
X140.438Y-92.869
X140.438Y-111.919
X140.438Y-130.969
X148.487Y-54.769
X153.987Y-77.844
X153.987Y-88.844
X153.987Y-115.944
X153.987Y-126.944
X159.487Y-54.769
T3
X96.837Y-54.769
X96.837Y-73.819
X96.837Y-111.919
X96.844Y-92.869
X106.362Y-130.969
X115.887Y-54.769
X115.887Y-73.819
X115.887Y-92.869
X115.887Y-111.919
X134.938Y-54.769
X134.938Y-73.819
X134.938Y-92.869
X134.938Y-111.919
X134.938Y-130.969
X153.987Y-54.769
X153.987Y-83.344
X153.987Y-121.444
T0
M30
