M48
; DRILL file {KiCad (5.1.10)-1} date 05/19/21 19:05:53
; FORMAT={-:-/ absolute / metric / decimal}
; #@! TF.CreationDate,2021-05-19T19:05:53-07:00
; #@! TF.GenerationSoftware,Kicad,Pcbnew,(5.1.10)-1
; #@! TF.FileFunction,Plated,1,2,PTH
FMAT,2
METRIC
T1C0.300
T2C0.400
T3C0.813
T4C1.300
T5C1.400
%
G90
G05
T2
X132.842Y-123.317
X146.05Y-123.317
X146.431Y-101.219
T3
X127.326Y-52.197
X127.326Y-54.737
X127.326Y-57.277
X127.326Y-59.817
X127.326Y-62.357
X127.326Y-64.897
X127.326Y-67.437
X127.326Y-69.977
X127.326Y-72.517
X127.326Y-75.057
X127.326Y-77.597
X127.326Y-80.137
X142.546Y-52.197
X142.546Y-54.737
X142.546Y-57.277
X142.546Y-59.817
X142.546Y-62.357
X142.546Y-64.897
X142.546Y-67.437
X142.546Y-69.977
X142.546Y-72.517
X142.546Y-75.057
X142.546Y-77.597
X142.546Y-80.137
T4
X149.944Y-102.394
X156.444Y-102.394
T5
X93.037Y-52.219
X93.037Y-71.269
X93.037Y-109.369
X93.044Y-90.319
X94.337Y-50.769
X94.337Y-69.819
X94.337Y-107.919
X94.344Y-88.869
X102.562Y-128.419
X103.862Y-126.969
X112.087Y-52.219
X112.087Y-71.269
X112.087Y-90.319
X112.087Y-109.369
X113.387Y-50.769
X113.387Y-69.819
X113.387Y-88.869
X113.387Y-107.919
X131.137Y-52.219
X131.137Y-71.269
X131.137Y-90.319
X131.137Y-109.369
X131.137Y-128.419
X132.438Y-50.769
X132.438Y-69.819
X132.438Y-88.869
X132.438Y-107.919
X132.438Y-126.969
X149.987Y-85.844
X149.987Y-123.944
X150.188Y-52.219
X151.438Y-87.144
X151.438Y-125.244
X151.487Y-50.769
T1
G00X96.487Y-60.669
M15
G01X97.188Y-60.669
M16
G05
G00X96.487Y-79.719
M15
G01X97.188Y-79.719
M16
G05
G00X96.487Y-117.819
M15
G01X97.188Y-117.819
M16
G05
G00X96.494Y-98.769
M15
G01X97.194Y-98.769
M16
G05
G00X101.488Y-49.222
M15
G01X102.187Y-49.216
M16
G05
G00X101.488Y-68.272
M15
G01X102.187Y-68.266
M16
G05
G00X101.488Y-106.372
M15
G01X102.187Y-106.366
M16
G05
G00X101.494Y-87.322
M15
G01X102.194Y-87.316
M16
G05
G00X106.012Y-136.869
M15
G01X106.712Y-136.869
M16
G05
G00X111.013Y-125.422
M15
G01X111.712Y-125.416
M16
G05
G00X115.537Y-60.669
M15
G01X116.237Y-60.669
M16
G05
G00X115.537Y-79.719
M15
G01X116.237Y-79.719
M16
G05
G00X115.537Y-98.769
M15
G01X116.237Y-98.769
M16
G05
G00X115.537Y-117.819
M15
G01X116.237Y-117.819
M16
G05
G00X120.538Y-49.222
M15
G01X121.237Y-49.216
M16
G05
G00X120.538Y-68.272
M15
G01X121.237Y-68.266
M16
G05
G00X120.538Y-87.322
M15
G01X121.237Y-87.316
M16
G05
G00X120.538Y-106.372
M15
G01X121.237Y-106.366
M16
G05
G00X134.588Y-60.669
M15
G01X135.287Y-60.669
M16
G05
G00X134.588Y-79.719
M15
G01X135.287Y-79.719
M16
G05
G00X134.588Y-98.769
M15
G01X135.287Y-98.769
M16
G05
G00X134.588Y-117.819
M15
G01X135.287Y-117.819
M16
G05
G00X134.588Y-136.869
M15
G01X135.287Y-136.869
M16
G05
G00X139.588Y-49.222
M15
G01X140.287Y-49.216
M16
G05
G00X139.588Y-68.272
M15
G01X140.287Y-68.266
M16
G05
G00X139.588Y-87.322
M15
G01X140.287Y-87.316
M16
G05
G00X139.588Y-106.372
M15
G01X140.287Y-106.366
M16
G05
G00X139.588Y-125.422
M15
G01X140.287Y-125.416
M16
G05
G00X148.441Y-78.694
M15
G01X148.434Y-77.994
M16
G05
G00X148.441Y-116.794
M15
G01X148.434Y-116.094
M16
G05
G00X153.637Y-60.669
M15
G01X154.338Y-60.669
M16
G05
G00X158.638Y-49.222
M15
G01X159.337Y-49.216
M16
G05
G00X159.887Y-83.694
M15
G01X159.887Y-82.994
M16
G05
G00X159.887Y-121.794
M15
G01X159.887Y-121.094
M16
G05
T2
G00X91.438Y-58.669
M15
G01X92.037Y-58.669
M16
G05
G00X91.438Y-77.719
M15
G01X92.037Y-77.719
M16
G05
G00X91.438Y-115.819
M15
G01X92.037Y-115.819
M16
G05
G00X91.444Y-96.769
M15
G01X92.044Y-96.769
M16
G05
G00X100.962Y-134.869
M15
G01X101.562Y-134.869
M16
G05
G00X110.487Y-58.669
M15
G01X111.087Y-58.669
M16
G05
G00X110.487Y-77.719
M15
G01X111.087Y-77.719
M16
G05
G00X110.487Y-96.769
M15
G01X111.087Y-96.769
M16
G05
G00X110.487Y-115.819
M15
G01X111.087Y-115.819
M16
G05
G00X129.537Y-58.669
M15
G01X130.137Y-58.669
M16
G05
G00X129.537Y-77.719
M15
G01X130.137Y-77.719
M16
G05
G00X129.537Y-96.769
M15
G01X130.137Y-96.769
M16
G05
G00X129.537Y-115.819
M15
G01X130.137Y-115.819
M16
G05
G00X129.537Y-134.869
M15
G01X130.137Y-134.869
M16
G05
G00X148.588Y-58.669
M15
G01X149.188Y-58.669
M16
G05
G00X157.887Y-88.744
M15
G01X157.887Y-88.144
M16
G05
G00X157.887Y-126.844
M15
G01X157.887Y-126.244
M16
G05
T5
G00X99.337Y-49.694
M15
G01X99.337Y-50.244
M16
G05
G00X99.337Y-68.744
M15
G01X99.337Y-69.294
M16
G05
G00X99.337Y-106.844
M15
G01X99.337Y-107.394
M16
G05
G00X99.344Y-87.794
M15
G01X99.344Y-88.344
M16
G05
G00X108.862Y-125.894
M15
G01X108.862Y-126.444
M16
G05
G00X118.387Y-49.694
M15
G01X118.387Y-50.244
M16
G05
G00X118.387Y-68.744
M15
G01X118.387Y-69.294
M16
G05
G00X118.387Y-87.794
M15
G01X118.387Y-88.344
M16
G05
G00X118.387Y-106.844
M15
G01X118.387Y-107.394
M16
G05
G00X137.438Y-49.694
M15
G01X137.438Y-50.244
M16
G05
G00X137.438Y-68.744
M15
G01X137.438Y-69.294
M16
G05
G00X137.438Y-87.794
M15
G01X137.438Y-88.344
M16
G05
G00X137.438Y-106.844
M15
G01X137.438Y-107.394
M16
G05
G00X137.438Y-125.894
M15
G01X137.438Y-126.444
M16
G05
G00X148.912Y-80.844
M15
G01X149.463Y-80.844
M16
G05
G00X148.912Y-118.944
M15
G01X149.463Y-118.944
M16
G05
G00X156.487Y-49.694
M15
G01X156.487Y-50.244
M16
G05
T0
M30
